<svg width="150" height="150" viewBox="0 0 150 150" fill="none" xmlns="http://www.w3.org/2000/svg">
<g clip-path="url(#clip0_199_5)">
<rect width="150" height="150" rx="12" fill="#29A3D9"/>
<path d="M51.9105 122.256C46.9612 122.256 44.4865 120.891 44.4865 118.16V36.24C44.4865 33.5093 46.9612 32.144 51.9105 32.144H57.2865C62.1505 32.144 64.5825 33.5093 64.5825 36.24V67.856H86.4705V36.24C86.4705 33.5093 88.9452 32.144 93.8945 32.144H99.1425C104.092 32.144 106.567 33.5093 106.567 36.24V118.16C106.567 120.891 104.092 122.256 99.1425 122.256H93.8945C88.9452 122.256 86.4705 120.891 86.4705 118.16V84.752H64.5825V118.16C64.5825 120.891 62.1505 122.256 57.2865 122.256H51.9105Z" fill="black"/>
</g>
<defs>
<clipPath id="clip0_199_5">
<rect width="150" height="150" fill="white"/>
</clipPath>
</defs>
</svg>
