<svg width="140" height="388" viewBox="0 0 140 388" fill="none" xmlns="http://www.w3.org/2000/svg">
<rect x="0.157227" y="387.055" width="386.109" height="139.685" rx="12" transform="rotate(-90 0.157227 387.055)" fill="#52C5F2"/>
<path d="M70.3385 191.651C79.9812 191.651 87.5332 194.041 92.9945 198.819C98.4559 203.598 101.187 210.297 101.187 218.915L101.187 278.435C101.187 281.166 98.7119 282.531 93.7625 282.531H88.6425C83.6932 282.531 81.2185 281.166 81.2185 278.435L81.2185 220.195C81.2185 216.697 80.2372 213.838 78.2745 211.619C76.3119 209.486 73.6665 208.419 70.3385 208.419C67.0959 208.419 64.4932 209.529 62.5305 211.747C60.4825 213.966 59.4585 216.782 59.4585 220.195L59.4585 278.435C59.4585 281.166 56.9838 282.531 52.0345 282.531H47.0425C42.0932 282.531 39.6185 281.166 39.6185 278.435L39.6185 218.915C39.6185 210.297 42.3492 203.598 47.8105 198.819C53.1865 194.041 60.6959 191.651 70.3385 191.651Z" fill="#282828"/>
<path d="M115.075 355.631C115.075 360.58 113.709 363.055 110.979 363.055H29.0587C26.3281 363.055 24.9627 360.58 24.9627 355.631L24.9627 350.255C24.9627 345.391 26.3281 342.959 29.0587 342.959H60.6748V321.071H29.0587C26.3281 321.071 24.9627 318.596 24.9627 313.646V308.399C24.9627 303.449 26.3281 300.974 29.0587 300.974H110.979C113.709 300.974 115.075 303.449 115.075 308.399V313.646C115.075 318.596 113.709 321.071 110.979 321.071H77.5708V342.959H110.979C113.709 342.959 115.075 345.391 115.075 350.255V355.631Z" fill="#282828"/>
<path d="M62.3388 121.059C62.3388 119.437 62.7654 118.243 63.6188 117.475C64.3868 116.706 65.6668 116.323 67.4588 116.323L105.603 116.323C107.565 116.323 109.357 117.645 110.979 120.29C112.515 122.85 113.709 126.051 114.563 129.891C115.416 133.73 115.843 137.4 115.843 140.898C115.843 152.845 112.131 161.677 104.707 167.395C97.1974 173.027 85.5494 175.842 69.7628 175.842C54.4028 175.842 42.9681 172.984 35.4587 167.267C27.9494 161.549 24.1947 152.674 24.1947 140.643C24.1947 136.803 24.6641 133.09 25.6027 129.507C26.4561 125.923 27.6081 123.021 29.0587 120.803C30.4241 118.584 31.8321 117.475 33.2827 117.475C34.3921 117.475 35.8854 117.944 37.7627 118.883C39.6401 119.736 41.3041 120.803 42.7547 122.083C44.1201 123.363 44.8027 124.515 44.8027 125.539C44.8027 125.88 44.5041 126.776 43.9067 128.227C43.2241 129.677 42.6694 131.298 42.2427 133.09C41.7307 134.883 41.4747 137.016 41.4747 139.491C41.4747 144.952 43.7787 148.963 48.3867 151.523C52.9947 154.083 60.1628 155.363 69.8908 155.363C80.3014 155.363 87.6827 154.168 92.0347 151.779C96.3014 149.304 98.4347 145.677 98.4347 140.898C98.4347 138.85 98.2641 137.101 97.9227 135.651H79.2348L79.255 135.178C79.255 136.458 78.7285 142.397 77.7045 142.995C76.6805 143.592 75.0592 143.891 72.8405 143.891H68.7445C66.5259 143.891 64.9045 143.592 63.8805 142.995C62.8565 142.397 62.3445 141.458 62.3445 140.178L62.3388 121.059Z" fill="#282828"/>
<path d="M115.805 65.3535C115.805 87.7108 100.531 98.8895 69.9812 98.8895C39.4319 98.8895 24.1572 87.7108 24.1572 65.3535C24.1572 54.4308 27.8692 39.1535 35.2932 33.5215C42.7172 27.8042 54.2799 24.9455 69.9812 24.9455C85.6826 24.9455 97.2452 27.8042 104.669 33.5215C112.093 39.1535 115.805 54.4308 115.805 65.3535ZM99.0372 65.2255C99.0372 62.1535 98.1839 52.6788 96.4772 50.8015C94.7706 48.9242 91.8266 47.5162 87.6452 46.5775C83.3786 45.6389 77.4906 45.1695 69.9812 45.1695C62.5572 45.1695 56.7546 45.6389 52.5732 46.5775C48.3066 47.5162 45.3199 48.9242 43.6132 50.8015C41.9066 52.6788 41.0532 62.1535 41.0532 65.2255C41.0532 68.2975 41.9066 70.8148 43.6132 72.7775C45.3199 74.6548 48.3066 76.1055 52.5732 77.1295C56.7546 78.0682 62.5572 78.5375 69.9812 78.5375C77.4052 78.5375 83.2506 78.0682 87.5172 77.1295C91.7839 76.1055 94.7706 74.6548 96.4772 72.7775C98.1839 70.8148 99.0372 68.2975 99.0372 65.2255Z" fill="#282828"/>
<circle cx="84.604" cy="61.4044" r="5" fill="#282828"/>
<circle cx="54.604" cy="61.4044" r="5" fill="#282828"/>
</svg>
